/* XPM */
static char * collectible_xpm[] = {
"32 32 7 1",
" 	c None",
".	c #72C37A",
"+	c #FBFCAA",
"@	c #6C3B4F",
"#	c #68B671",
"$	c #FFCE00",
"%	c #F29546",
"................................",
"............++++++++............",
"..........++@@@@@@@@++..........",
"........++@@++++++++@@++........",
"...#...+@@++$$$$$$$$++@@+.......",
"...#..+@++$$%%%%%%%%$$++@+......",
"...##+@+$$%%$$$$$$$$%%$$+@+.....",
"....+@+$$%$$$$$$$$$$$$%$$+@+....",
"...+@+$$%$$$$$$$$$$$$$$%$$+@+...",
"...+@$$%$$$$$$$+$+$$$$$$%$$@+...",
"..+@+$$%$$$$$$+$+$+$$$$$%$$+@+..",
"..+@$$%$$$$$$+$$$$$+$$$$$%$$@+..",
".+@+$$%$$$$$$%$$%%$%$$$$$%$$+@+.",
".+@$$$$$$$$$$%$%$$%%$$$$$$$$$@+.",
".+@$$$$$$$$$$%$$+$$$$$$$$$$$$@+.",
".+@$$$$$%%$$$$%$$+$$$$%%$$$$$@+.",
".+@$$$$$++$$$$$%$$+$$$++$$$$$@+.",
".+@$$$$$$$$$$$$$%$$+$$$$$$$$$@+.",
".+@$$$$$$$$$$++$$%$%$$$$$$$$$@+.",
".+@%$$+$$$$$$%$++%$%$$$$$+$$%@+.",
"..+@$$+$$$$$$%$$$$$%$$$$$+$$@+..",
"..+@%$$+$$$$$$%$%$%$$$$$+$$%@+..",
"...+@$$+$$$$$$$%$%$$$$$$+$$@+...",
"...+@%$$+$$$$$$$$$$$$$$+$$%@+...",
"....+@%$$+$$$$$$$$$$$$+$$%@+....",
".....+@%$$++$$$$$$$$++$$%@+.....",
"......+@%%$$++++++++$$%%@+......",
".......+@@%%$$$$$$$$%%@@+.......",
"........++@@%%%%%%%%@@++........",
"..........++@@@@@@@@++..........",
"............++++++++............",
"................................"};
