/* XPM */
static char * exit_xpm[] = {
"32 32 68 1",
" 	c None",
".	c #72C37A",
"+	c #40220D",
"@	c #40230D",
"#	c #41230E",
"$	c #68B671",
"%	c #563015",
"&	c #573116",
"*	c #593217",
"=	c #542F14",
"-	c #5A3317",
";	c #5C3418",
">	c #5D3518",
",	c #5D3519",
"'	c #40220C",
")	c #583216",
"!	c #5B3418",
"~	c #5E3619",
"{	c #5F371A",
"]	c #60371A",
"^	c #61381A",
"/	c #5F3619",
"(	c #63391B",
"_	c #643A1C",
":	c #42240F",
"<	c #62391B",
"[	c #653B1C",
"}	c #663B1D",
"|	c #673C1D",
"1	c #41240E",
"2	c #653A1C",
"3	c #683D1D",
"4	c #693D1E",
"5	c #6A3E1E",
"6	c #6B3E1F",
"7	c #6B3F1F",
"8	c #663C1D",
"9	c #6A3E1F",
"0	c #6C3F1F",
"a	c #6C401F",
"b	c #5C3518",
"c	c #61381B",
"d	c #683D1E",
"e	c #6D4020",
"f	c #6E4020",
"g	c #6E4120",
"h	c #432510",
"i	c #6F4120",
"j	c #B5811A",
"k	c #AA7818",
"l	c #6F4121",
"m	c #6F4221",
"n	c #442611",
"o	c #663B1C",
"p	c #704221",
"q	c #6D401F",
"r	c #442712",
"s	c #C98F1E",
"t	c #452712",
"u	c #432611",
"v	c #C28A1D",
"w	c #C18A1D",
"x	c #C0891C",
"y	c #C68D1D",
"z	c #B17D1A",
"A	c #A57418",
"B	c #3F210C",
"C	c #542F15",
"................................",
"................................",
"................................",
".............+@###@.............",
"...$.......+@%&***&#@...........",
"...$...$..+=&-;>,>;-&#..........",
"...$$.$$.'=)!~{]^]{~!)#.........",
"....$.$..#);/^(___(^/;:.........",
"........+&!{<_[}|}[_<{!1........",
"........#-~<2|34443|2<~:........",
".......+&>^_|4567654|_^>:.......",
".......#-{(8490aaa0948({:.......",
".......#bc[d90efgfe09d[ch.......",
".......:~(|50egiiige05|jk.......",
".......:]2d7eglmmmlge7d2n.......",
".......hco40fipppppif04on.......",
".......h<|5qgmpppppmgq5|n.......",
".......h(|6eipppppppie6|r.......",
"......$h_3selppppppple73t.......",
".......u_v7flppppppplf7dt.......",
".......u_v7flppppppplf7dt.......",
".......u_v7flppppppplf7dt.......",
".......h_w7elppppppple73t.$$....",
".......h(x6eipppppppie6|r$$.....",
".......h<|yqgmpppppmgq5|n$......",
".......hco40fipppppif04on.......",
".......:]2d7eglmmmlge7d2n.......",
".......:~(|50egiiige05|(h.......",
".......#bc[d90efgfe09d[zA.......",
".......#-{(8490aaa0948({:.......",
".......+&>^_|4567654|_^>:.......",
".......BC-~<2|34443|2<~-#......."};
