/* XPM */
static char * player_down_xpm[] = {
"32 32 11 1",
" 	c None",
".	c #72C37A",
"+	c #68B671",
"@	c #000000",
"#	c #278700",
"$	c #5FB727",
"%	c #9FCF6F",
"&	c #D7EFA7",
"*	c #FFFFFF",
"=	c #9F0000",
"-	c #FF875F",
"................................",
"................................",
"................................",
"................................",
"...+............................",
"...+...+......@@@...............",
"...++.++....@@###@@.............",
"....+.+....@$$#%#&#@............",
"..........@$#&#*#$&#@...........",
"..........@$%$*&%#%$@...........",
"..........@#%#*$%@%#@...........",
".........@@##@$#$@##@@..........",
"........@%&@@@###@@@$$@.........",
"........@@@@&%@@@%%@@@@.........",
".......@%@&%@$$$$$@%&@%@........",
".......@&@&&&&&&&&&&&@%@........",
".......@&@%&&&&$$&&&%@%@........",
".......@%$&&%&&$$&%&&$%@........",
"......+@%&%@&$&$&$&@%&%@........",
".......+@&*==&&&&&==*&@.........",
"........@%*-*=&&&=*-*%@.........",
"........@%&&=&&&&&==&%@.........",
"........@@%%&&&&&&&%%@@+..++....",
"........@*$@%&$&$&%@$*@+.++.....",
".........@@@@@%%%@@@@@.+.+......",
"..............@@@...............",
"................................",
"................................",
"................................",
"................................",
"................................",
"................................"};
