/* XPM */
static char * penguin_xpm[] = {
"32 32 5 1",
" 	c #8C8C8C",
".	c #000000",
"+	c #FFFFFF",
"@	c #FFD100",
"#	c #FFAB00",
"                                ",
"             ......             ",
"           ..........           ",
"          ............          ",
"         ..............         ",
"         ..............         ",
"        ....++..........        ",
"        ...++++...++....        ",
"       ....++.+..+.++....       ",
"       ....++.+..+.++....       ",
"       ....+++....+++....       ",
"      .........@@.........      ",
"      .......@@@@@@.......      ",
"     .....++.@@@@@@.+......     ",
"    .....++++.@@@@.+++......    ",
"   .....++++++.@@.+++++......   ",
" .......+++++++..++++++........ ",
".......+++++++++++++++++........",
"... ...+++++++++++++++++.... ...",
"    ...++++++++++++++++++...    ",
"    ...++++++++++++++++++...    ",
"    ...++++++++++++++++++...    ",
"    ....++++++++++++++++....    ",
"    ....++++++++++++++++....    ",
"    .....++++++++++++++.....    ",
"     .......++++++++.......     ",
"    ...####...++++...####...    ",
"   ..########..++..########..   ",
"   .##########....##########.   ",
"   .##########....##########.   ",
"   ..########..  ..########..   ",
"    ..........    ..........    "};
