/* XPM */
static char * player_xpm[] = {
"32 32 15 1",
" 	c None",
".	c #72C37A",
"+	c #181425",
"@	c #51312E",
"#	c #6B3322",
"$	c #974C35",
"%	c #68B671",
"&	c #F1A26E",
"*	c #CD7941",
"=	c #FFF1E8",
"-	c #50466E",
";	c #2E2647",
">	c #FFCCAA",
",	c #C97D4C",
"'	c #B03152",
"................................",
"................................",
".......++++++++++++++++++.......",
"......+@@###########$$$$@+......",
"...%.+@@@#############$$@@+.....",
"...%+@@@@##############$@@@+....",
"...%+@@@@###############@@@@+...",
"...+@@@@@###############@@@@+...",
"...+@@@@@######@@#######@@@@+...",
"...+@@@@@######&&#######@@@@+...",
"...+@@@@@@@@@@@&&@@@@@@@@@@@+...",
"...+@&&******************&&@+...",
"...+@&@@@@@@@******@@@@@@@&@+...",
"...+@&==-;+==**>>**==-++==&@+...",
"..++@&==+++==&&>>&&==+++==&@++..",
".+,,@&&=+++=&&&>>&&&=+++=&&@,,+.",
".+,,@&&&&&&&&&&>>&&&&&&&&&&@,,+.",
".+,,@&>>>>>>&&>>>=&&>>>>>>&@,,+.",
".+,,@&&>>>>>&>>>>>=&>>>>>&&@,,+.",
"..++@&&&>>>>&&****&&>>>>&&&@,+..",
"...+&&&&&>>###########>&&&&&+...",
"...+&&&&&&&@@@@@@@@@@@&&&&&&+...",
"...+&&&&&&&&&++++++#&&&&&&&&+...",
"...+&&&&&&&&&&+'''+&&&&&&&&&+...",
"...+&&&&&&&&>>>>>>>>>&&&&&&&+...",
"....+&&&&&&&>>>>>>>>>&&&&&&+....",
"....+&&&&&&&&>>>>>>>&&&&&&&+....",
".....+&&&&&&&*#####*&&&&&&+.....",
"......+&&&&&&&#####&&&&&&+......",
".......++++++++++++++++++.......",
"................................",
"................................"};
