/* XPM */
static char * collectible_xpm[] = {
"32 32 10 1",
" 	c None",
".	c #72C37A",
"+	c #68B671",
"@	c #000000",
"#	c #00FF00",
"$	c #00AD00",
"%	c #D63900",
"&	c #9C0000",
"*	c #FF845A",
"=	c #FFFFFF",
"................................",
"................................",
"................................",
"................................",
"...+............................",
"...+...+........................",
"...++.++........................",
"....+.+.........................",
"................@...............",
"...............@#@..............",
".............@@$$@..............",
"...........@@%&#&%@@............",
"..........@&%&&$&&%&@...........",
".........@&**%&&&%*%&@..........",
".........@%*=**%*%*%&@..........",
".........@%**==***%%&@..........",
".........@&%****%%%%&@..........",
".........@&%%*%%%%%&&@..........",
"......++..@&%%%%%&%&@...........",
".......++.@&%%&%%&&&@...........",
"...........@&%&&&&&@............",
"............@@&&&@@...+.........",
"..............@@@.....++..++....",
"...................++..+.++.....",
"....................++.+.+......",
"................................",
"................................",
"................................",
"................................",
"................................",
"................................",
"................................"};
