/* XPM */
static char * exit_xpm[] = {
"32 32 9 1",
" 	c None",
".	c #554D55",
"+	c #757575",
"@	c #2E2736",
"#	c #9F9F97",
"$	c #121212",
"%	c #C2CBB9",
"&	c #E5EEDC",
"*	c #000000",
".+++++++++++++++++++++++++++++++",
"+@@@@@@@@@@@@@@@@@@@@@@@@######+",
"+@@@@@@@@@@@@@@@@@@@@@@@@######+",
"+@@@@@@@@@@@@@@@@@@@@@@@@######+",
"+@@@@$$@@$$$$$$$$$$$++++.%%####+",
"+@@@@@@@@@@@@@@@@@@@###+.%%####+",
"+@@@@@@@@@@@@@@@@@@@###+.%%####+",
"+$$@$$$$$$$$$$$++...%##+.%%####+",
"+@@@@$$@$$$$$$$#+++.%##+.%%%%##+",
"+$$$$$$$$++....%+++.%##+.&&%%##+",
"+$$$$$$$$++....%+++.%##+.&&%%##+",
"+********##++..%#++.%%%#.&&%%##+",
"+***.....##++..%#++.%%%#.%%####+",
"+**$+....###+..%%##.%%%#.&&%%##+",
"+**$+....###+..%%##.%%%#.&&%%##+",
"+...#++..###+..%%##.%###.%%%%##+",
"+...#+++.##++..%#++.%%%#.&&%%%%+",
"+...#+++.###+..%%##.%###.&&%%##+",
"+...#+++.###+..%%##.%###.&&%%##+",
"+...#+++.##++..%#++.%%%#.&&%%%%+",
"+........##+...%#++.%%%#.%%####+",
"+...+++..###+..%%##.%%%#.&&%%##+",
"+...+++..###+..%%##.%%%#.&&%%##+",
"+...#+++.###+..%%##.%###.&&%%##+",
"+...#+++.##++..%#++.%%%#.&&%%%%+",
"+........##+...%#++.%%%#.%%####+",
"+........##+...%#++.%%%#.%%####+",
"#...+++..###+..%%##.%%%#.%%%%##+",
"#++.#+++.###+..%%##.%###.%%%%##+",
"%++.###+.##++..##++.%%%#.&&%%%%+",
"%++.###+.##++..##++.%%%#.&&%%%%+",
"%%%######+++++++++++++++++++++++"};
