/* XPM */
static char * wall_xpm[] = {
"32 32 5 1",
" 	c #5E3643",
".	c #7A444A",
"+	c #BF7958",
"@	c #EEA160",
"#	c #A05B53",
"  ......   ++@...           ##  ",
"   ....    .....  +.       #+.. ",
"    ..      ...   ..      #+@.. ",
"        #             .  #+@... ",
" .     #+@.              #@...  ",
"    ###++@..  +.         .....  ",
"   #++++@...  ..          ..    ",
"  #+++@@....      ###           ",
"  +@@@.....      #+++           ",
"   .......   .   #++++   ..     ",
"    ....         ++++@   ..     ",
"                 ++@@.       ## ",
"          ####   @@....     #++@",
".        ##++++  .....    . ++@.",
".   .   #+++++++  ...       @@..",
".      #+++++++@       ##   ....",
"       #++++++@..     #++@   ...",
"       #++++++@...   #++@..     ",
"  ####  +++++@....   +@@...     ",
"  #++@  ++++@.....    ....   +. ",
" +++@..  +@@.....      ..    .. ",
"#++@...   .......               ",
"+@@...     ....    .    ###+    ",
"+.....                 #+++@    ",
" ....                ##+++@..   ",
"  ..     .   ..     #+++++@...  ",
"      #      ..     #++++@....  ",
"    #+#.           #++++@....   ",
"  #+++@..          .+@@@....    ",
" #++++@..    ##     ........  . ",
" #++@....   #+++    .......     ",
"  +@.....   ++@.      ..        "};
